<svg xmlns="http://www.w3.org/2000/svg" width="279.545" height="61.225" viewBox="0 0 279.545 61.225">
  <g id="Groupe_22175" data-name="Groupe 22175" transform="translate(804.953 17.615)">
    <g id="Groupe_22173" data-name="Groupe 22173" transform="translate(-804.953 -17.615)">
      <g id="Groupe_22090" data-name="Groupe 22090" transform="translate(68.494 12.692)">
        <path id="Tracé_23052" data-name="Tracé 23052" d="M1767.057,1580.068l1.263-5.954H1784.6a1.864,1.864,0,0,0,1.2-.316,2.036,2.036,0,0,0,.564-1.173l.9-4.24a2.186,2.186,0,0,0,.044-.5q0-.812-1.173-.812h-12.043a3.813,3.813,0,0,1-2.684-.789,2.921,2.921,0,0,1-.835-2.233,7.729,7.729,0,0,1,.135-1.308l1.669-7.894a7.54,7.54,0,0,1,1.985-4.014,6.24,6.24,0,0,1,4.375-1.308h18.99l-1.218,5.819h-16.193a1.427,1.427,0,0,0-1.038.316,2.314,2.314,0,0,0-.5,1.127l-.857,4.015q-.046.181-.068.316a1.608,1.608,0,0,0-.023.271q0,.677.992.677h12.224a3.819,3.819,0,0,1,2.729.812,3,3,0,0,1,.835,2.255,6.449,6.449,0,0,1-.135,1.263l-1.759,8.345a7.545,7.545,0,0,1-1.984,4.014,6.162,6.162,0,0,1-4.331,1.308Z" transform="translate(-1767.057 -1547.681)" fill="#0d99bc"/>
        <path id="Tracé_23053" data-name="Tracé 23053" d="M1868.028,1597.631a4.462,4.462,0,0,1-2.729-.654,2.444,2.444,0,0,1-.834-2.052,9.581,9.581,0,0,1,.225-1.759l2.932-13.892a6.379,6.379,0,0,1,1.646-3.383,5.089,5.089,0,0,1,3.586-1.083h16.1l-1.173,5.548h-12.855a1.7,1.7,0,0,0-1.037.226,1.9,1.9,0,0,0-.451.992l-1.939,9.112c-.031.121-.053.225-.068.316a1.61,1.61,0,0,0-.022.271q0,.677,1.037.676H1885.3l-1.173,5.684Z" transform="translate(-1834.74 -1565.245)" fill="#0d99bc"/>
        <path id="Tracé_23054" data-name="Tracé 23054" d="M1947.974,1597.631a3.8,3.8,0,0,1-2.481-.654,2.433,2.433,0,0,1-.767-1.962,8.248,8.248,0,0,1,.225-1.669l1.127-5.413a12.01,12.01,0,0,1,.632-2.12,3.821,3.821,0,0,1,.9-1.353,3.063,3.063,0,0,1,1.309-.7,7.305,7.305,0,0,1,1.85-.2h11.592l-.812,3.879h-8.3a1.416,1.416,0,0,0-.9.226,1.644,1.644,0,0,0-.406.947l-.5,2.391c-.03.151-.053.271-.068.361a1.575,1.575,0,0,0-.022.27q0,.587.857.586h10.555l2.391-11.187a2.154,2.154,0,0,0,.045-.5.721.721,0,0,0-.225-.564,1.324,1.324,0,0,0-.857-.2h-15.471l1.037-4.962h18.674a4.545,4.545,0,0,1,2.8.654,2.479,2.479,0,0,1,.812,2.052,9.6,9.6,0,0,1-.226,1.759l-3.879,18.358Z" transform="translate(-1890.509 -1565.245)" fill="#0d99bc"/>
        <path id="Tracé_23055" data-name="Tracé 23055" d="M2036.074,1575.857l6.856-32.386h6.315l-6.856,32.386Z" transform="translate(-1953.981 -1543.471)" fill="#0d99bc"/>
        <path id="Tracé_23056" data-name="Tracé 23056" d="M2077.225,1597.631a4.557,4.557,0,0,1-2.774-.654,2.444,2.444,0,0,1-.834-2.052,9.594,9.594,0,0,1,.226-1.759l2.931-13.892a6.383,6.383,0,0,1,1.647-3.383,5.163,5.163,0,0,1,3.631-1.083h15.427a3.7,3.7,0,0,1,2.459.654,2.475,2.475,0,0,1,.744,1.962,8.1,8.1,0,0,1-.181,1.669l-1.895,8.976h-15.2l.767-3.789h9.2l.676-3.067a3.111,3.111,0,0,0,.045-.586.555.555,0,0,0-.2-.5,1.445,1.445,0,0,0-.744-.135h-9.066a1.583,1.583,0,0,0-1.038.248,2.061,2.061,0,0,0-.45,1.015l-2.12,9.833c-.03.151-.053.278-.068.383a2.009,2.009,0,0,0-.023.293.58.58,0,0,0,.226.541,1.709,1.709,0,0,0,.812.135H2096.8l-1.082,5.187Z" transform="translate(-1980.067 -1565.245)" fill="#0d99bc"/>
        <path id="Tracé_23057" data-name="Tracé 23057" d="M2164.373,1580.068l4.736-22.283h6.766l-3.473,16.329h9.608q2.39,0,3.022-2.932l2.707-12.72a4.265,4.265,0,0,0,.135-1.037,1.7,1.7,0,0,0-1.94-1.895H2169.56l1.263-6h17.637q6.675,0,6.676,5.413a11.423,11.423,0,0,1-.271,2.391l-3.2,14.93a9.944,9.944,0,0,1-3.2,5.819,9.782,9.782,0,0,1-6.45,1.985Z" transform="translate(-2043.128 -1547.681)" fill="#00525b"/>
        <path id="Tracé_23058" data-name="Tracé 23058" d="M2263.554,1580.068l4.736-22.328h7.082l-1.082,4.962h11.231l-1.037,4.871h-11.232l-1.353,6.405h15.562l-1.263,6.09Zm5.187-24.583,1.263-5.954h22.644l-1.263,5.954Z" transform="translate(-2112.043 -1547.681)" fill="#00525b"/>
        <path id="Tracé_23059" data-name="Tracé 23059" d="M2372.513,1580.068l-2.977-30.537h7.081l1.715,22.283,11.592-22.283h6.811l-16.509,30.537Z" transform="translate(-2185.684 -1547.681)" fill="#00525b"/>
      </g>
      <g id="Groupe_22092" data-name="Groupe 22092" transform="translate(0)">
        <circle id="Ellipse_1595" data-name="Ellipse 1595" cx="30.612" cy="30.612" r="30.612" fill="#0d99bc"/>
        <path id="Tracé_23060" data-name="Tracé 23060" d="M1615.191,1577.392l2.6-2.172,24.444,14.047-28.479,16.669v-1.7l17.655-14.962Z" transform="translate(-1592.043 -1552.84)" fill="#00525b"/>
        <path id="Tracé_23061" data-name="Tracé 23061" d="M1605.435,1556.287l-2.276,1.953-24.876-13.829,28.479-16.656v1.6l-17.655,15.055Z" transform="translate(-1567.395 -1519.859)" fill="#00525b"/>
      </g>
    </g>
  </g>
</svg>
